<svg width="53" height="52" viewBox="0 0 53 52" fill="none" xmlns="http://www.w3.org/2000/svg">
<rect x="0.333252" width="52" height="52" rx="26" fill="#FFD11A"/>
<path fill-rule="evenodd" clip-rule="evenodd" d="M22.5833 17.75L33.8333 17.75C34.0322 17.75 34.2229 17.829 34.3636 17.9697C34.5042 18.1103 34.5833 18.3011 34.5833 18.5V29.75C34.5833 30.1642 34.2475 30.5 33.8333 30.5C33.419 30.5 33.0833 30.1642 33.0833 29.75V20.3107L19.3636 34.0303C19.0707 34.3232 18.5958 34.3232 18.3029 34.0303C18.01 33.7374 18.01 33.2626 18.3029 32.9697L32.0226 19.25L22.5833 19.25C22.169 19.25 21.8333 18.9142 21.8333 18.5C21.8333 18.0858 22.169 17.75 22.5833 17.75Z" fill="#141414"/>
</svg>
